<svg width="61" height="91" viewBox="0 0 61 91" fill="none" xmlns="http://www.w3.org/2000/svg">
<path d="M20.048 25.504H3.308C3.68 11.368 13.6 0.703993 30.712 0.703993C48.072 0.703993 57.992 10.252 57.992 23.024C57.992 32.572 51.172 39.392 44.228 41.376V41.748C54.272 44.228 60.844 52.164 60.844 63.572C60.844 77.708 50.676 90.604 30.588 90.604C11.244 90.604 1.696 79.816 0.828 64.068H17.568C18.188 71.508 22.776 76.468 30.712 76.468C38.4 76.468 43.36 70.888 43.36 62.704C43.36 55.016 38.152 49.684 27.86 49.684H22.776V36.044H28.356C35.92 36.044 40.508 31.58 40.508 24.636C40.508 19.8 37.284 14.964 30.464 14.964C23.272 14.964 20.296 20.048 20.048 25.504Z" fill="#F2F2F2"/>
</svg>
