<svg width="60" height="88" viewBox="0 0 60 88" fill="none" xmlns="http://www.w3.org/2000/svg">
<path d="M25.38 15.56L23.768 30.812C25.256 30.44 27.736 30.192 29.72 30.192C47.824 30.192 59.728 40.98 59.728 58.216C59.728 73.344 48.568 87.728 29.844 87.728C11.12 87.728 1.572 75.824 0.704 62.432H18.56C19.304 67.888 22.776 72.352 30.092 72.352C36.292 72.352 41.624 67.392 41.624 59.332C41.624 50.528 35.92 45.072 24.76 45.072C18.808 45.072 12.36 45.94 5.788 47.304L10.128 0.431995H53.9V15.56H25.38Z" fill="#F2F2F2"/>
</svg>
