<svg width="65" height="88" viewBox="0 0 65 88" fill="none" xmlns="http://www.w3.org/2000/svg">
<path d="M0.348 56.852C0.348 46.064 5.432 37.012 11.88 27.712L31.1 0.431995H50.072L31.472 26.844C32.464 26.472 35.44 26.348 36.928 26.348C52.8 26.968 64.704 39.616 64.704 56.852C64.704 73.84 51.436 87.728 32.34 87.728C13.244 87.728 0.348 74.956 0.348 56.852ZM17.832 56.976C17.832 66.4 24.404 72.724 32.464 72.724C40.772 72.724 47.22 66.4 47.22 56.976C47.22 47.924 41.144 40.98 32.464 40.98C23.908 40.98 17.832 47.304 17.832 56.976Z" fill="#F2F2F2"/>
</svg>
