<svg width="18" height="18" viewBox="0 0 18 18" fill="none" xmlns="http://www.w3.org/2000/svg">
<path d="M8.99749 0.560547C5.5869 0.560547 2.81055 3.3369 2.81055 6.74749C2.81054 12.7487 8.6487 17.311 8.6487 17.311C8.74836 17.3905 8.87207 17.4338 8.99957 17.4338C9.12707 17.4338 9.25078 17.3905 9.35044 17.311C9.35044 17.311 15.1886 12.7487 15.1886 6.74749C15.1886 3.3369 12.4081 0.560547 8.99749 0.560547ZM8.99749 1.68582C11.8001 1.68582 14.0633 3.94489 14.0633 6.74749C14.0633 11.6569 9.61775 15.5358 9.00165 16.0611C8.38848 15.5384 3.93582 11.6589 3.93582 6.74749C3.93582 3.94489 6.19489 1.68582 8.99749 1.68582Z" fill="white"/>
<path d="M8.99666 3.9364C7.45003 3.9364 6.18555 5.20088 6.18555 6.74752C6.18554 8.29417 7.45002 9.56279 8.99666 9.56279C10.5433 9.56279 11.8119 8.29417 11.8119 6.74752C11.8119 5.20088 10.5433 3.9364 8.99666 3.9364ZM8.99666 5.06168C9.9353 5.06168 10.6867 5.80887 10.6867 6.74752C10.6867 7.68616 9.93531 8.43751 8.99666 8.43751C8.05802 8.43751 7.31082 7.68616 7.31082 6.74752C7.31083 5.80887 8.05802 5.06168 8.99666 5.06168Z" fill="white"/>
</svg>
