<svg width="18" height="18" viewBox="0 0 18 18" fill="none" xmlns="http://www.w3.org/2000/svg">
<path d="M8.99945 0.560547C5.58885 0.560547 2.8125 3.3369 2.8125 6.74749C2.8125 12.7487 8.65065 17.311 8.65065 17.311C8.75031 17.3905 8.87403 17.4338 9.00152 17.4338C9.12902 17.4338 9.25273 17.3905 9.35239 17.311C9.35239 17.311 15.1906 12.7487 15.1905 6.74749C15.1905 3.3369 12.41 0.560547 8.99945 0.560547ZM8.99945 1.68582C11.802 1.68582 14.0653 3.94489 14.0653 6.74749C14.0653 11.6569 9.6197 15.5358 9.0036 16.0611C8.39043 15.5384 3.93777 11.6589 3.93778 6.74749C3.93778 3.94489 6.19685 1.68582 8.99945 1.68582Z" fill="#F02930"/>
<path d="M8.99862 3.9364C7.45198 3.9364 6.18751 5.20088 6.1875 6.74752C6.18749 8.29417 7.45197 9.56279 8.99862 9.56279C10.5453 9.56279 11.8139 8.29417 11.8139 6.74752C11.8139 5.20088 10.5453 3.9364 8.99862 3.9364ZM8.99862 5.06168C9.93726 5.06168 10.6886 5.80887 10.6886 6.74752C10.6886 7.68616 9.93726 8.43751 8.99862 8.43751C8.05997 8.43751 7.31277 7.68616 7.31278 6.74752C7.31278 5.80887 8.05997 5.06168 8.99862 5.06168Z" fill="#F02930"/>
</svg>
