<svg width="156" height="41" viewBox="0 0 156 41" fill="none" xmlns="http://www.w3.org/2000/svg">
<path d="M22.6355 26.0652H19.967C19.8472 26.0652 19.75 26.162 19.75 26.2813V26.5365C19.75 26.6558 19.8472 26.7526 19.967 26.7526H22.6355C22.7553 26.7526 22.8525 26.6558 22.8525 26.5365V26.2813C22.8525 26.162 22.7553 26.0652 22.6355 26.0652Z" fill="black"/>
<path d="M22.8952 27.1814H19.967C19.8472 27.1814 19.75 27.2782 19.75 27.3975V27.6527C19.75 27.772 19.8472 27.8688 19.967 27.8688H22.8952C23.015 27.8688 23.1122 27.772 23.1122 27.6527V27.3975C23.1122 27.2782 23.015 27.1814 22.8952 27.1814Z" fill="black"/>
<path d="M23.066 28.2975H19.967C19.8472 28.2975 19.75 28.3943 19.75 28.5136V28.7688C19.75 28.8881 19.8472 28.9849 19.967 28.9849H23.066C23.1858 28.9849 23.283 28.8881 23.283 28.7688V28.5136C23.283 28.3943 23.1858 28.2975 23.066 28.2975Z" fill="black"/>
<path d="M19.7492 29.3287C19.6638 29.3287 19.4894 30.1012 19.4894 30.1862C19.4894 30.2712 19.3791 31.0224 19.4041 31.3024C19.4112 31.3909 19.4503 31.5646 19.4894 31.6461C19.5357 31.7417 19.6638 31.9225 19.7492 31.9898C19.8595 32.0819 20.2651 32.2484 20.2651 32.2484C20.2651 32.2484 20.5853 32.3866 20.6956 32.4185C20.8841 32.4752 21.2755 32.5603 21.4712 32.5886C21.7487 32.6311 22.3109 32.663 22.5919 32.6736C22.9477 32.6878 24.0222 32.6736 24.0222 32.6736C24.0222 32.6736 24.8014 32.7091 25.0576 32.6736C25.1323 32.663 25.2853 32.6276 25.3529 32.5886C25.3778 32.5744 25.4276 32.5319 25.4383 32.5036C25.4703 32.4221 25.4703 32.2378 25.4383 32.1563C25.4133 32.0996 25.3066 32.0288 25.2675 31.9862C25.0113 31.7205 24.4065 30.785 24.4065 30.785C24.4065 30.785 24.0329 30.133 23.8906 29.9275C23.8123 29.8141 23.6486 29.5909 23.5455 29.4988C23.4885 29.4456 23.364 29.3358 23.2857 29.3287C22.5955 29.2436 20.5283 29.3287 19.7527 29.3287H19.7492Z" fill="#1B1B1B"/>
<path d="M14.3638 23.4041C14.6252 23.4041 14.837 23.1931 14.837 22.9328C14.837 22.6725 14.6252 22.4615 14.3638 22.4615C14.1025 22.4615 13.8906 22.6725 13.8906 22.9328C13.8906 23.1931 14.1025 23.4041 14.3638 23.4041Z" fill="#1B1B1B"/>
<path d="M11.1332 29.9275C11.0691 29.9735 10.9802 30.1082 10.9624 30.1861C10.9197 30.3562 10.9624 30.6964 10.9624 30.8736C10.9624 31.033 10.5034 33.2406 10.4465 33.3646C10.3433 33.5736 9.93059 34.137 9.75625 34.3957C9.58192 34.6544 9.20122 34.8953 9.06602 34.9981C8.92015 35.1115 8.29396 35.3808 8.2904 35.4268C8.20501 36.3694 7.94528 39.1049 8.03067 39.119C9.15141 39.2891 10.016 39.2466 10.2721 39.2041C10.5354 39.1616 11.0656 39.0553 11.3075 38.9454C12.2539 38.5167 12.6773 38.0135 12.8587 37.8292C13.2039 37.4855 13.3889 36.6954 13.4636 36.4544C13.5347 36.2205 13.8265 34.8351 13.8443 34.6083C13.8799 34.1902 14.0578 33.3185 13.8941 32.9358C13.8478 32.8224 13.6273 32.6842 13.549 32.5921C13.428 32.4504 13.2181 32.1456 13.1185 31.9897C12.9797 31.7807 12.7271 31.3484 12.6026 31.1322C12.5136 30.9834 12.3037 30.6999 12.2575 30.5299C12.229 30.4271 12.2895 30.2039 12.2575 30.1011C12.2468 30.0728 12.197 30.0302 12.1721 30.0161C12.1223 29.9842 12.0013 29.9452 11.9444 29.931C11.8305 29.8991 11.5992 29.8424 11.4818 29.846C11.3929 29.846 11.2114 29.8814 11.1367 29.931L11.1332 29.9275Z" fill="#1B1B1B"/>
<path d="M5.35779 24.1765C5.27951 24.1729 5.14787 24.2863 5.09806 24.3466C5.05537 24.3997 5.0269 24.5379 5.01267 24.6052C4.96998 24.7966 4.84189 25.9801 4.84189 26.0651C4.84189 26.1501 4.8241 26.3131 4.84189 26.3946C4.85256 26.4442 4.89882 26.5399 4.92728 26.5824C4.98065 26.6568 5.10518 26.7986 5.18701 26.8411C5.30442 26.9013 5.7029 26.9261 5.7029 26.9261L11.6517 27.2699C11.6517 27.2699 11.9257 27.2947 12.0111 27.2699C12.0609 27.2557 12.1463 27.1813 12.1676 27.1352C12.1996 27.0643 12.1605 26.9013 12.1676 26.8234C12.1747 26.6994 12.221 26.4513 12.253 26.3273C12.3099 26.1218 12.4771 25.7285 12.5981 25.5549C12.7013 25.406 13.0393 25.2076 13.114 25.0411C13.1318 25.0021 13.1354 24.9029 13.114 24.8639C13.0998 24.8391 13.0535 24.8001 13.0286 24.7824C12.9895 24.754 12.9041 24.7009 12.8578 24.6973C10.9615 24.5273 6.99798 24.2686 5.35779 24.1836V24.1765Z" fill="black"/>
<path d="M5.52907 20.658C5.50417 20.743 5.45436 20.9131 5.44369 21.0017C5.42945 21.108 5.4259 21.3241 5.44369 21.4304C5.45436 21.4977 5.47926 21.6359 5.52907 21.682C5.59312 21.7422 5.78524 21.7599 5.87419 21.7741C7.59977 22.0328 12.5737 22.4403 12.8975 22.2879C13.0434 22.2206 13.1145 22.0292 13.2889 21.7741C13.3992 21.6111 13.7158 21.3489 13.8937 21.2603C13.972 21.2214 14.1499 21.1859 14.2388 21.1753C14.3456 21.1611 14.8437 21.1753 15.0998 21.2603C15.541 21.4056 15.7972 21.682 15.8755 21.7741C15.9466 21.8556 16.0889 22.0186 16.1352 22.1178C16.1814 22.217 16.2206 22.4367 16.2206 22.5466C16.2206 22.6564 16.1708 22.8726 16.1352 22.9753C16.0889 23.11 15.911 23.3509 15.8755 23.4891C15.8577 23.5777 15.9324 23.6592 16.0213 23.6557C16.3949 23.645 17.3662 23.6238 17.5121 23.6592C17.7932 23.7265 18.3197 23.9958 18.5474 24.173C18.6435 24.2474 18.8107 24.4246 18.8926 24.5167C18.9851 24.6195 19.1594 24.8321 19.2377 24.9455C19.3053 25.0411 19.4761 25.3388 19.4938 25.3707C19.4938 25.3707 19.4938 25.3742 19.4974 25.3777L19.5437 25.4663C19.5686 25.5159 19.6184 25.5443 19.6717 25.5443H22.6746C22.7351 25.5443 22.792 25.5053 22.8098 25.4486C22.9023 25.1758 23.1656 24.4139 23.2012 24.258C23.2688 23.971 23.3969 23.3934 23.4253 23.0993C23.4467 22.8619 23.4324 22.38 23.4253 22.1426C23.4182 21.8769 23.2012 20.6544 23.0304 20.052C22.9308 19.7119 22.3402 18.4221 21.8243 17.8197C21.376 17.2988 20.1022 16.2677 19.7571 16.0161C19.4511 15.7964 18.7253 15.3074 18.3767 15.1586C17.9248 14.9637 16.9571 14.6696 16.4803 14.5562C16.1601 14.4818 15.5161 14.418 15.1888 14.3862C14.9077 14.3578 14.342 14.3684 14.0574 14.3862C13.7122 14.4074 13.0291 14.496 12.6876 14.5562C12.346 14.6165 11.7092 14.7866 11.3961 14.8999C11.0616 15.0204 10.3358 15.3429 10.0156 15.5023C9.62066 15.7007 8.93043 16.133 8.54973 16.3598C8.25799 16.537 7.67805 16.987 7.42899 17.2173C7.23687 17.3945 6.78501 17.9366 6.74232 17.9862C6.74232 17.9862 6.73876 17.9898 6.7352 17.9933C6.69962 18.0429 6.32604 18.5674 6.21931 18.7622C6.09122 18.9996 5.81371 19.726 5.7888 19.7898C5.7888 19.7898 5.7888 19.7934 5.7888 19.7969C5.77101 19.8501 5.58956 20.4453 5.53263 20.6509L5.52907 20.658Z" fill="#1B1B1B"/>
<path d="M3.97732 22.288C3.85279 22.288 3.6322 22.4545 3.54681 22.5466C3.48277 22.6175 3.39738 22.7982 3.37603 22.8903C3.35469 22.9718 3.35825 23.149 3.37603 23.2305C3.39738 23.3262 3.48277 23.5033 3.54681 23.5778C3.59662 23.6345 3.73538 23.716 3.80654 23.7478C3.86703 23.7762 3.99867 23.8293 4.06627 23.8329C4.19791 23.8435 4.58216 23.7478 4.58216 23.7478L5.09806 23.6628H5.61396L10.8725 24.0065L12.9397 24.1766C12.9397 24.1766 13.6726 24.2652 13.8861 24.2616C14.0818 24.2616 14.4091 24.2262 14.5763 24.1766C14.7329 24.1305 15.0566 24.0278 15.1812 23.9179C15.2986 23.8152 15.786 23.1455 15.786 22.9754C15.786 22.8514 15.1385 23.1029 15.1385 23.1029C15.1385 23.1029 15.0424 23.3404 14.9855 23.4041C14.8254 23.5848 14.6653 23.7478 14.1458 23.6628C13.7616 23.599 13.5232 23.11 13.5872 22.8478C13.7153 22.2915 14.1316 22.1852 14.4055 22.2029C15.0531 22.2454 15.1029 22.6458 15.1456 22.9329C15.1634 23.0427 15.0531 23.3616 15.0531 23.3616L15.5334 23.1667L15.786 22.9718C15.786 22.9718 15.8714 22.7132 15.786 22.5431C15.6686 22.3128 15.3164 21.9124 15.1385 21.8132C14.7506 21.597 14.2276 21.6324 14.0604 21.6856C13.9217 21.7281 13.7153 21.9443 13.6299 22.0293C13.4378 22.2206 13.3702 22.6317 13.1567 22.8443C12.9432 23.0569 12.4665 23.0144 12.4665 23.0144L10.5274 22.8868L7.94082 22.6281L5.57126 22.412C5.57126 22.412 4.40783 22.2844 3.97732 22.2844V22.288Z" fill="#1B1B1B"/>
<path d="M10.2967 29.7574C10.2433 29.761 10.1401 29.807 10.0974 29.8425C10.0369 29.8921 9.94799 30.0267 9.92664 30.1011C9.87683 30.2712 9.92664 30.6326 9.92664 30.8098C9.92664 30.9976 9.72384 32.0181 9.66692 32.1634C9.56729 32.4256 9.43921 32.9394 9.3218 33.1945C9.28266 33.2831 9.119 33.5453 9.06207 33.6232C8.95533 33.7721 8.54618 34.052 8.54618 34.052L8.03028 34.3957C8.03028 34.3957 7.3863 34.7607 7.34005 34.8245C7.29024 34.8953 7.26177 35.0796 7.25466 35.1682C7.22264 35.5119 7.24754 36.1993 7.25466 36.543C7.26177 36.8867 7.16927 37.932 7.16927 37.932C7.16927 37.932 7.10878 38.6938 7.08388 38.7753C6.99849 39.034 6.87752 39.158 6.82415 39.2891C6.77434 39.4096 6.70674 39.6789 6.73876 39.8029C6.76722 39.9199 6.99849 40.1466 7.08388 40.1466C7.16927 40.1466 8.46434 40.2317 8.46434 40.2317C8.46434 40.2317 9.45344 40.2671 9.78433 40.2317C9.97645 40.2104 10.4995 40.1006 10.7058 40.0616C11.0616 39.9907 11.6451 39.8454 11.9973 39.7179C12.1788 39.6541 12.5275 39.3954 12.6876 39.2891C12.926 39.1261 13.3565 38.8179 13.5486 38.6017C13.6731 38.4635 13.8866 38.1588 13.9791 37.9993C14.1356 37.7336 14.3918 37.1737 14.495 36.8832C14.5982 36.5926 14.7761 35.9867 14.8401 35.682C14.9041 35.3772 14.9824 34.7819 15.0109 34.4807C15.0465 34.137 15.1069 33.4496 15.0963 33.1059C15.0927 32.911 15.1034 32.5035 15.0109 32.3335C14.9219 32.174 14.5982 31.9685 14.4523 31.8622C14.3491 31.7878 14.1036 31.6992 14.0218 31.6035C13.8795 31.4441 13.6767 30.8311 13.6767 30.8311C13.6767 30.8311 13.5023 30.3066 13.4169 30.1436C13.3814 30.0763 13.3031 29.9381 13.2462 29.885C13.2106 29.8531 13.1216 29.8035 13.0754 29.7999C13.0078 29.7964 12.869 29.8425 12.8157 29.885C12.7801 29.9169 12.7374 30.009 12.7303 30.0551C12.7125 30.1826 12.7658 30.4484 12.8157 30.5688C12.8655 30.6893 13.0078 30.8913 13.0754 30.9976C13.2426 31.2598 13.5664 31.7878 13.7656 32.0287C13.883 32.1705 14.1997 32.3831 14.2815 32.5425C14.3633 32.702 14.3633 33.0563 14.3669 33.2299C14.3776 33.5736 14.31 34.2611 14.2815 34.6048C14.2495 34.9697 14.0609 35.7493 13.9791 36.1072C13.9044 36.4367 13.7763 37.0001 13.634 37.3084C13.5415 37.5103 13.2568 37.9108 13.1181 38.0808C12.9936 38.2332 12.2215 38.7931 11.9546 38.9809C11.6522 39.197 11.1577 39.3352 10.8766 39.4167C10.656 39.4805 10.2006 39.562 9.97289 39.5797C9.69538 39.6045 9.13323 39.5939 8.85216 39.5797C8.61378 39.5691 8.13702 39.5443 7.90575 39.4946C7.83815 39.4805 7.68872 39.4628 7.64603 39.4096C7.54641 39.2714 7.63891 38.8958 7.64603 38.7222C7.6567 38.421 7.70295 37.8186 7.73142 37.521C7.75632 37.2588 7.84527 35.689 7.8595 35.4268C7.86306 35.3489 7.8595 35.1788 7.9022 35.115C8.01605 34.9591 8.40742 34.8315 8.59243 34.7713C8.72051 34.7288 8.95889 34.5764 9.06563 34.4701C9.15102 34.3851 9.4819 34.091 9.58153 33.9563C9.67403 33.8323 9.93732 33.4071 10.012 33.2689C10.0903 33.1236 10.3002 32.1705 10.3571 31.9827C10.4461 31.6779 10.5279 31.0437 10.5742 30.7389C10.6026 30.5476 10.6204 30.1543 10.5742 29.9665C10.5635 29.9204 10.5244 29.8247 10.4888 29.7964C10.4532 29.768 10.3465 29.7503 10.3002 29.7539L10.2967 29.7574Z" fill="#1B1B1B"/>
<path d="M4.32382 27.525C4.20641 27.5533 4.10679 27.6313 4.0641 27.6951C4.02852 27.7518 3.98582 27.8864 3.97871 27.9537C3.96803 28.0282 3.96803 28.1734 3.97871 28.2478C3.99294 28.3258 4.02852 28.4853 4.0641 28.5561C4.089 28.6057 4.14949 28.7085 4.19218 28.7439C4.27401 28.8077 4.47681 28.8857 4.57999 28.8998C4.77924 28.9282 5.15282 28.8998 5.35562 28.8998C7.3089 28.8857 11.2155 29.0699 13.2008 29.1585C13.2791 29.1585 13.4178 29.0522 13.4605 28.9884C13.521 28.8963 13.5352 28.6695 13.5459 28.5597C13.5673 28.3577 13.5139 27.9467 13.5459 27.7482C13.5779 27.5498 13.7238 27.1671 13.8056 26.9793C13.8981 26.7667 14.2361 26.1572 14.2361 26.1572C14.2361 26.1572 14.4674 25.7462 14.5813 25.6435C14.7805 25.4592 14.8694 25.3706 15.2715 25.1297C15.702 24.871 16.3033 24.9454 16.3887 24.9596C16.5239 24.9808 16.7836 25.0801 16.9117 25.1297C17.0469 25.1828 17.3066 25.3104 17.4276 25.3883C17.5485 25.4663 17.762 25.6328 17.8581 25.732C17.9541 25.8313 18.1356 26.0403 18.2032 26.1608C18.2957 26.3202 18.4629 26.8482 18.4629 26.8482C18.4629 26.8482 18.6124 27.2947 18.6337 27.4506C18.6622 27.6632 18.6444 28.0955 18.6337 28.3081C18.623 28.503 18.5839 28.8892 18.5483 29.0805C18.5021 29.3215 18.2886 30.0231 18.2886 30.0231C18.2886 30.0231 18.1534 30.5369 18.1178 30.7105C18.0893 30.8487 18.0324 31.1286 18.0217 31.2668C18.0146 31.3625 18.0324 31.568 18.0324 31.653C18.0324 31.7381 18.1996 32.1172 18.2921 32.2554C18.3847 32.3936 18.6052 32.6487 18.7227 32.7692C18.8401 32.8897 19.0962 33.1094 19.2385 33.1944C19.4983 33.3468 20.0711 33.5417 20.3593 33.6303C20.6475 33.7188 21.1954 33.8358 21.48 33.8889C21.7896 33.9456 22.7288 34.059 22.7288 34.059C22.7288 34.059 23.3444 34.1334 23.5507 34.144C23.7998 34.1582 24.5434 34.144 24.5434 34.144C24.5434 34.144 25.3546 34.1122 25.6179 34.059C25.7531 34.0307 26.0413 33.9881 26.1338 33.8889C26.1942 33.8251 26.2227 33.6338 26.2192 33.5452C26.2192 33.4779 26.18 33.3362 26.1338 33.2865C26.0875 33.2369 25.9381 33.2228 25.874 33.2015C25.81 33.1802 24.9383 33.2157 24.7106 33.244C24.4971 33.2688 24.0631 33.3078 23.8496 33.3291C23.6112 33.3503 23.138 33.4177 22.9032 33.4141C22.7075 33.4141 22.3197 33.3503 22.1276 33.3291C21.9568 33.3078 21.6081 33.2759 21.4373 33.244C21.1954 33.198 20.7222 33.0633 20.4909 32.9854C20.3166 32.9287 19.9679 32.8046 19.8007 32.7267C19.6548 32.6594 19.3524 32.5212 19.2421 32.4078C19.1033 32.2625 18.9077 31.894 18.8543 31.6991C18.8009 31.5042 18.8365 31.118 18.8543 30.9267C18.8756 30.6892 18.9788 30.218 19.0251 29.9841C19.0642 29.7892 19.1603 29.4065 19.1959 29.2117C19.2385 28.9884 19.3204 28.5384 19.3417 28.3116C19.3631 28.0849 19.356 27.603 19.3417 27.3691C19.3275 27.1529 19.2955 26.7242 19.2385 26.5151C19.1887 26.3238 19.0393 25.9517 18.9361 25.7817C18.8507 25.6364 18.623 25.3848 18.5056 25.2679C18.3526 25.1155 18.004 24.8568 17.8154 24.7541C17.6411 24.6549 17.2639 24.506 17.0682 24.4529C16.8298 24.3891 16.3389 24.3289 16.0934 24.3253C15.8763 24.3253 15.4423 24.3678 15.2324 24.4104C15.0509 24.4493 14.7058 24.5804 14.5421 24.669C14.3785 24.7576 14.076 24.9738 13.9373 25.0978C13.7914 25.2324 13.5317 25.5336 13.4214 25.7002C13.3324 25.8313 13.1866 26.1147 13.1261 26.2565C13.0585 26.4124 12.9553 26.7384 12.9055 26.9014C12.8592 27.0502 12.7881 27.3549 12.7347 27.5037C12.7062 27.5746 12.6707 27.7624 12.6066 27.8049C12.4394 27.9077 11.7456 27.89 11.7456 27.89C11.7456 27.89 9.26575 27.8014 8.42609 27.7624C7.84259 27.7341 6.09922 27.5923 6.09922 27.5923C6.09922 27.5923 4.67606 27.4648 4.33094 27.5498L4.32382 27.525Z" fill="#1B1B1B"/>
<path d="M30.4915 7.90881L27.7981 10.2085L27.791 10.616L28.1966 10.825L28.6093 10.5274L30.9931 8.42615L31.0002 8.06118L30.648 7.91236L30.4915 7.90881Z" fill="black"/>
<path d="M28.8975 6.05566L26.222 8.43328L26.2148 8.85494L26.6169 9.07463L27.026 8.76281L29.3956 6.59072L29.4027 6.21157L29.0541 6.05921L28.8975 6.05566Z" fill="black"/>
<path d="M28.096 5.20874L25.3457 7.65722L25.3493 8.07889L25.7762 8.28795L26.1996 7.96904L28.6332 5.73316L28.6296 5.35402L28.2596 5.20874H28.096Z" fill="black"/>
<path d="M27.0644 4.4469L24.3711 7.03358L24.3818 7.46941L24.8158 7.67493L25.2321 7.33477L27.6123 4.97841L27.5981 4.58509L27.2245 4.44336L27.0644 4.4469Z" fill="black"/>
<path d="M25.9589 3.70643L23.5039 6.46319L23.543 6.89903L23.9771 7.07974L24.3614 6.71477L26.5246 4.20605L26.489 3.81628L26.1154 3.69226L25.9589 3.70643Z" fill="black"/>
<path d="M24.8163 2.91263L22.5215 5.97766L22.6104 6.40996L23.0872 6.53752L23.4537 6.12649L25.4674 3.34492L25.3856 2.95515L24.98 2.8772L24.8163 2.91263Z" fill="black"/>
<path d="M23.6072 2.1757L21.4902 5.49586L21.6148 5.94232L22.1058 6.04508L22.4473 5.59507L24.301 2.58319L24.1907 2.18633L23.7708 2.13318L23.6072 2.1757Z" fill="black"/>
<path d="M22.2873 1.49884L20.4941 5.14853L20.6685 5.58437L21.1915 5.63043L21.4904 5.13081L23.0523 1.83192L22.8922 1.4386L22.4545 1.43506L22.2873 1.49884Z" fill="black"/>
<path d="M20.7881 1.12332L19.4219 4.92537L19.6496 5.31869L20.1761 5.27971L20.4145 4.7482L21.5886 1.32175L21.3823 0.967407L20.9447 1.03119L20.7881 1.12332Z" fill="black"/>
<path d="M19.274 0.751191L18.3418 4.67018L18.6122 5.03161L19.1281 4.92885L19.3095 4.37254L20.0887 0.850406L19.8468 0.524414L19.4198 0.644889L19.274 0.751191Z" fill="black"/>
<path d="M17.8468 0.559897L17.1992 4.47889L17.4874 4.84385L17.9891 4.74818L18.1278 4.19541L18.6544 0.669742L18.3947 0.34375L17.982 0.453595L17.8468 0.559897Z" fill="black"/>
<path d="M16.3272 0.379066L16.0781 4.36892L16.4055 4.69137L16.8964 4.52483L16.9783 3.95435L17.1419 0.371979L16.8502 0.0814209L16.4517 0.255047L16.3272 0.379066Z" fill="black"/>
<path d="M14.9503 0.294101L14.7617 4.32294L15.0997 4.65247L15.5907 4.48947L15.6654 3.91545L15.7757 0.297645L15.4733 0L15.0748 0.166539L14.9503 0.294101Z" fill="black"/>
<path d="M13.576 0.340129L13.5547 4.30873L13.8962 4.62409L14.3766 4.454L14.4264 3.88352L14.3908 0.322412L14.0813 0.0389404L13.6934 0.212567L13.576 0.340129Z" fill="black"/>
<path d="M12.3491 0.336588L12.3242 4.30518L12.6693 4.62409L13.1461 4.45046L13.1959 3.87998L13.1639 0.318871L12.8543 0.0354004L12.4665 0.21257L12.3491 0.336588Z" fill="black"/>
<path d="M10.9902 0.464182L11.193 4.42569L11.5559 4.72334L12.022 4.52136L12.0398 3.95442L11.7979 0.396858L11.4741 0.131104L11.097 0.329533L10.9902 0.464182Z" fill="black"/>
<path d="M9.5957 0.722886L10.1756 4.64896L10.5635 4.91117L11.0117 4.66668L10.9726 4.09974L10.3962 0.58115L10.0476 0.35083L9.69177 0.58115L9.5957 0.722886Z" fill="black"/>
<path d="M8.1875 1.02408L9.16237 4.87574L9.57508 5.09543L9.99491 4.80842L9.89885 4.24502L8.97024 0.804387L8.60377 0.605957L8.27289 0.875255L8.1875 1.02408Z" fill="black"/>
<path d="M6.97266 1.55913L8.1183 5.36118L8.54169 5.56316L8.94729 5.25843L8.82632 4.70211L7.74472 1.304L7.36758 1.12329L7.04737 1.40322L6.97266 1.55913Z" fill="black"/>
<path d="M5.75977 1.99848L7.08331 5.74384L7.51381 5.92455L7.90518 5.6021L7.75931 5.04933L6.5176 1.70792L6.13335 1.54492L5.82737 1.84257L5.75977 1.99848Z" fill="black"/>
<path d="M4.55859 2.57601L6.10272 6.23633L6.54034 6.39224L6.91392 6.04499L6.73603 5.50639L5.29864 2.24293L4.90371 2.1012L4.61552 2.41656L4.55859 2.57601Z" fill="black"/>
<path d="M3.39453 3.16075L5.15569 6.71831L5.60755 6.84587L5.95622 6.4809L5.7463 5.9494L4.11323 2.7816L3.70763 2.66467L3.44078 2.99421L3.39453 3.16075Z" fill="black"/>
<path d="M2.0957 3.80567L4.12371 7.29236L4.58979 7.39512L4.92424 7.00535L4.67518 6.48092L2.80373 3.38046L2.38745 3.28833L2.13484 3.63558L2.0957 3.80567Z" fill="black"/>
<path d="M0.949219 4.73756L3.13733 8.05418L3.5963 8.12859L3.89872 7.7211L3.62476 7.22148L1.61455 4.27338L1.20183 4.20605L0.977682 4.56748L0.949219 4.73756Z" fill="black"/>
<path d="M0 5.5525L2.18811 8.86912L2.64708 8.94353L2.9495 8.53604L2.67554 8.03288L0.665328 5.08832L0.252611 5.021L0.0284632 5.38242L0 5.5525Z" fill="black"/>
<path d="M29.7004 6.91309L27.0071 9.21275L27 9.62024L27.4056 9.8293L27.8183 9.53165L30.2021 7.43042L30.2092 7.06545L29.857 6.91309H29.7004Z" fill="black"/>
<path d="M25.2861 8.56437C22.3864 6.28952 18.5403 5.03516 14.4523 5.03516C10.3643 5.03516 6.51819 6.28952 3.6185 8.56437C3.24136 8.86202 2.88557 9.17029 2.55469 9.4892C2.60094 9.49628 3.20578 10.1837 3.26271 10.2475C5.89556 7.69979 9.93378 6.06274 14.4559 6.06274C19.9244 6.06274 24.6884 8.45453 27.1113 11.9625C27.1362 11.9448 27.1576 11.9235 27.1825 11.9058C27.3746 11.7038 27.5739 11.5089 27.7838 11.3247C27.8122 11.2928 27.8371 11.2644 27.8656 11.2325C27.1754 10.2652 26.3144 9.36518 25.2897 8.56083L25.2861 8.56437Z" fill="#1B1B1B"/>
<path d="M14.4528 12.7598C11.3218 12.7598 8.4826 14 6.42969 16.002C6.63249 16.2784 6.80327 16.5725 6.96693 16.8736C6.99539 16.902 7.02386 16.9303 7.05232 16.9587C8.9131 15.0594 11.546 13.8724 14.4563 13.8724C17.5232 13.8724 20.277 15.1905 22.1521 17.2705C22.426 17.0225 22.7213 16.7921 23.0273 16.5725C20.9459 14.2374 17.879 12.7562 14.4563 12.7562L14.4528 12.7598Z" fill="#1B1B1B"/>
<path d="M12.1116 9.74436C12.6062 9.89673 13.0082 10.2333 13.2466 10.6904L13.2573 10.7082C13.4956 11.1653 13.5419 11.6861 13.3889 12.1751C13.3818 12.1964 13.3747 12.2176 13.364 12.2389C13.3675 12.2389 13.3747 12.2389 13.3782 12.2424C13.67 12.246 13.9617 12.2424 14.2535 12.2708C14.4207 11.6082 14.3389 10.9172 14.0186 10.3078L14.008 10.29C13.6629 9.63097 13.0794 9.14553 12.3678 8.92229C11.6562 8.69906 10.8984 8.76638 10.2366 9.11009L4.49414 12.0688C4.54039 12.122 4.91042 12.6677 4.99936 12.7988L10.6351 9.86838C10.9162 9.7231 11.2221 9.64869 11.5281 9.64869C11.7238 9.64869 11.9195 9.67704 12.1081 9.73727L12.1116 9.74436Z" fill="#1B1B1B"/>
<path d="M25.4067 13.603C25.4067 13.603 23.8305 12.2459 23.2862 11.8136C22.8023 11.4274 21.2938 10.3325 21.2938 10.3325C20.7103 9.86832 19.9809 9.65926 19.2373 9.74075C18.4937 9.82225 17.8284 10.1908 17.3658 10.7719L17.3516 10.7896C16.9211 11.3282 16.7076 11.9908 16.7468 12.6711C17.0385 12.6995 17.3231 12.7562 17.6113 12.8093C17.6184 12.8093 17.622 12.8093 17.6256 12.8093C17.622 12.7881 17.6184 12.7633 17.6149 12.742C17.558 12.2318 17.7038 11.7286 18.024 11.3246L18.0383 11.3069C18.362 10.9065 18.821 10.6514 19.3333 10.5947C19.5326 10.5735 19.7318 10.5805 19.9204 10.616C20.2228 10.6762 20.5075 10.8038 20.753 11.0022C20.753 11.0022 22.2117 12.0404 22.6778 12.4125C23.2328 12.8519 24.8374 14.2515 24.8374 14.2515C24.9477 14.092 25.3355 13.6704 25.3996 13.5995L25.4067 13.603Z" fill="#1B1B1B"/>
<path d="M24.3176 9.67C21.8092 7.4979 18.2371 6.49512 14.4906 6.49512C10.7442 6.49512 7.27521 7.80972 4.57832 9.67C4.18695 9.93929 3.87741 10.2192 3.54297 10.5275C3.86318 10.9988 3.9628 11.1972 4.31859 11.7287C11.2138 7.61128 12.3239 8.11799 13.3699 8.04004C14.4906 7.95499 17.3085 8.29516 18.4114 8.61761C20.1192 9.11723 22.5066 10.0137 25.6091 13.1886C25.6269 13.1709 26.3278 12.572 26.8152 12.1575C26.0574 11.2681 25.2391 10.4673 24.314 9.66645L24.3176 9.67Z" fill="#1B1B1B"/>
<path d="M10.9578 8.3801C11.5733 8.31278 12.8292 8.41199 13.37 8.80885C13.6938 9.04626 14.8359 9.73013 14.8359 11.2113C14.8359 11.64 14.7505 12.3274 14.7505 12.3274L16.3017 12.5861C16.3017 12.5861 16.5259 11.2077 16.7322 10.7825C16.8817 10.4742 17.2161 10.0171 17.5079 9.83998C17.7996 9.66281 18.1092 9.4821 18.9737 9.32619C19.9201 9.15611 21.2152 9.6699 21.1298 9.6699C21.0444 9.6699 18.5148 7.67497 18.1127 7.61119C17.7107 7.54741 13.1139 7.27102 13.0285 7.39858C12.9431 7.52615 11.2033 7.56867 11.2033 7.56867L10.5024 7.91238C10.5024 7.91238 10.1003 8.47932 10.9578 8.38365V8.3801Z" fill="#1B1B1B"/>
<path d="M35.5023 37.7643C35.1977 37.7877 35.0336 37.8063 34.8228 37.8063C34.3307 37.8063 34.0729 37.699 33.923 37.587C33.5902 37.3256 33.5762 36.9009 33.5762 36.7329V35.692H34.1198V36.6488C34.1198 36.7982 34.1151 37.0456 34.3073 37.1902C34.4291 37.2836 34.6259 37.3023 34.879 37.3023C35.1508 37.3023 35.3383 37.2883 35.5023 37.2603V35.6874H36.0459V39.2019H35.5023V37.7597V37.7643Z" fill="#1B1B1B"/>
<path d="M40.3533 38.3524H38.8537L38.4647 39.2065H37.8789L39.6316 35.4913L41.3047 39.2065H40.7189L40.344 38.3524H40.3533ZM40.1424 37.8483L39.6176 36.6628L39.0739 37.8483H40.1424Z" fill="#1B1B1B"/>
<path d="M45.6158 36.5135C45.2409 36.1541 44.8566 36.1215 44.6644 36.1215C43.8958 36.1215 43.3991 36.6909 43.3991 37.461C43.3991 38.2311 43.9193 38.7725 44.6644 38.7725C44.8331 38.7725 45.2174 38.7445 45.6158 38.3664V39.0105C45.5033 39.0805 45.1752 39.2766 44.6457 39.2766C44.3411 39.2766 43.849 39.2159 43.3944 38.7912C43.0523 38.4645 42.832 38.0397 42.832 37.4657C42.832 37.0083 42.9726 36.4902 43.3944 36.0888C43.7646 35.7388 44.1864 35.6221 44.6691 35.6221C45.1237 35.6221 45.3955 35.7388 45.6111 35.8834V36.5182L45.6158 36.5135Z" fill="#1B1B1B"/>
<path d="M48.6563 36.1914V39.2019H48.1127V36.1914H47.3066V35.6874H49.4624V36.1914H48.6563Z" fill="#1B1B1B"/>
<path d="M51.8718 37.0642H53.3761V35.6874H53.9197V39.2019H53.3761V37.5636H51.8718V39.2019H51.3281V35.6874H51.8718V37.0642Z" fill="#1B1B1B"/>
<path d="M59.6468 37.4516C59.6468 38.4737 58.8689 39.2765 57.8097 39.2765C56.7506 39.2765 55.9727 38.4784 55.9727 37.4516C55.9727 36.4248 56.7553 35.6173 57.8097 35.6173C58.8642 35.6173 59.6468 36.4154 59.6468 37.4516ZM59.0844 37.4516C59.0844 36.6721 58.5596 36.1214 57.8144 36.1214C57.0693 36.1214 56.5444 36.6721 56.5444 37.4516C56.5444 38.231 57.0693 38.7724 57.8144 38.7724C58.5596 38.7724 59.0844 38.2263 59.0844 37.4516Z" fill="#1B1B1B"/>
<path d="M63.648 36.1914H62.2467V37.0362H63.6058V37.5402H62.2467V38.7071H63.648V39.2111H61.7031V35.6967H63.648V36.2007V36.1914Z" fill="#1B1B1B"/>
<path d="M71.8167 37.4516C71.8167 38.4737 71.0388 39.2765 69.9797 39.2765C68.9205 39.2765 68.1426 38.4784 68.1426 37.4516C68.1426 36.4248 68.9252 35.6173 69.9797 35.6173C71.0341 35.6173 71.8167 36.4154 71.8167 37.4516ZM71.2544 37.4516C71.2544 36.6721 70.7295 36.1214 69.9843 36.1214C69.2392 36.1214 68.7143 36.6721 68.7143 37.4516C68.7143 38.231 69.2392 38.7724 69.9843 38.7724C70.7295 38.7724 71.2544 38.2263 71.2544 37.4516Z" fill="#1B1B1B"/>
<path d="M74.6283 37.3722L73.6535 35.692H74.258L74.9423 36.8822L75.6499 35.692H76.2544L75.2375 37.3722L76.3013 39.2065H75.6968L74.9235 37.8623L74.1221 39.2065H73.5176L74.6283 37.3722Z" fill="#1B1B1B"/>
<path d="M80.2576 38.3524H78.758L78.369 39.2065H77.7832L79.5359 35.4913L81.209 39.2065H80.6232L80.2483 38.3524H80.2576ZM80.0467 37.8483L79.5219 36.6628L78.9782 37.8483H80.0467Z" fill="#1B1B1B"/>
<path d="M83.824 35.692C84.0584 35.692 84.3302 35.706 84.5973 35.8834C84.9488 36.1167 85.0378 36.4761 85.0378 36.7375C85.0378 37.1062 84.8691 37.3536 84.6957 37.5076C84.4192 37.7456 84.0912 37.783 83.8334 37.783H83.5944V39.2112H83.0508V35.6967H83.8287L83.824 35.692ZM83.5944 37.2789H83.8334C84.0724 37.2789 84.4942 37.2229 84.4942 36.7328C84.4942 36.2428 84.0162 36.1961 83.8287 36.1961H83.5991V37.2789H83.5944Z" fill="#1B1B1B"/>
<path d="M87.5124 37.0642H89.0167V35.6874H89.5603V39.2019H89.0167V37.5636H87.5124V39.2019H86.9688V35.6874H87.5124V37.0642Z" fill="#1B1B1B"/>
<path d="M92.321 37.0642H93.8253V35.6874H94.3689V39.2019H93.8253V37.5636H92.321V39.2019H91.7773V35.6874H92.321V37.0642Z" fill="#1B1B1B"/>
<path d="M100.096 37.4516C100.096 38.4737 99.3181 39.2765 98.259 39.2765C97.1998 39.2765 96.4219 38.4784 96.4219 37.4516C96.4219 36.4248 97.2045 35.6173 98.259 35.6173C99.3134 35.6173 100.096 36.4154 100.096 37.4516ZM99.5337 37.4516C99.5337 36.6721 99.0088 36.1214 98.2636 36.1214C97.5185 36.1214 96.9936 36.6721 96.9936 37.4516C96.9936 38.231 97.5185 38.7724 98.2636 38.7724C99.0088 38.7724 99.5337 38.2263 99.5337 37.4516Z" fill="#1B1B1B"/>
<path d="M104.097 36.1914H102.696V37.0362H104.055V37.5402H102.696V38.7071H104.097V39.2111H102.152V35.6967H104.097V36.2007V36.1914Z" fill="#1B1B1B"/>
<path d="M111.351 35.692V39.2065H110.808V36.1961H109.303V39.2065H108.76V35.692H111.351Z" fill="#1B1B1B"/>
<path d="M114.342 35.692C114.576 35.692 114.848 35.706 115.115 35.8834C115.466 36.1167 115.555 36.4761 115.555 36.7375C115.555 37.1062 115.387 37.3536 115.213 37.5076C114.937 37.7456 114.609 37.783 114.351 37.783H114.112V39.2112H113.568V35.6967H114.346L114.342 35.692ZM114.112 37.2789H114.351C114.59 37.2789 115.012 37.2229 115.012 36.7328C115.012 36.2428 114.534 36.1961 114.346 36.1961H114.117V37.2789H114.112Z" fill="#1B1B1B"/>
<path d="M119.437 36.1914H118.036V37.0362H119.395V37.5402H118.036V38.7071H119.437V39.2111H117.492V35.6967H119.437V36.2007V36.1914Z" fill="#1B1B1B"/>
<path d="M124.07 35.692V38.7024H124.464V39.9999H123.958V39.2065H121.68V39.9999H121.174V38.7024C121.427 38.6978 121.624 38.5017 121.732 38.2264C121.816 38.007 121.858 37.741 121.858 37.3022V35.692H124.065H124.07ZM122.406 37.3069C122.406 37.853 122.336 38.1377 122.28 38.287C122.214 38.4644 122.13 38.5951 122.003 38.7024H123.526V36.1914H122.406V37.3069Z" fill="#1B1B1B"/>
<path d="M128.939 35.692V39.2065H128.396V36.1961H126.891V39.2065H126.348V35.692H128.939Z" fill="#1B1B1B"/>
<path d="M131.935 35.692C132.17 35.692 132.442 35.706 132.709 35.8834C133.06 36.1167 133.149 36.4761 133.149 36.7375C133.149 37.1062 132.98 37.3536 132.807 37.5076C132.531 37.7456 132.203 37.783 131.945 37.783H131.706V39.2112H131.162V35.6967H131.94L131.935 35.692ZM131.706 37.2789H131.945C132.184 37.2789 132.606 37.2229 132.606 36.7328C132.606 36.2428 132.128 36.1961 131.94 36.1961H131.71V37.2789H131.706Z" fill="#1B1B1B"/>
<path d="M137.461 36.8356L135.08 39.3559V35.6921H135.624V38.0631L138.004 35.5427V39.2066H137.461V36.8356Z" fill="#1B1B1B"/>
<path d="M140.965 37.741C140.787 37.7223 140.571 37.6336 140.421 37.5029C140.173 37.2929 140.116 37.0035 140.116 36.7562C140.116 36.4435 140.21 36.2148 140.388 36.0234C140.697 35.692 141.091 35.692 141.344 35.692H142.216V39.2065H141.672V37.8016H141.546L140.576 39.2065H139.91L140.96 37.741H140.965ZM141.41 36.1961C141.166 36.1961 140.941 36.2194 140.81 36.3548C140.721 36.4481 140.665 36.6301 140.665 36.7562C140.665 36.9289 140.73 37.0875 140.847 37.1762C140.913 37.2276 141.049 37.2976 141.382 37.2976H141.677V36.1914H141.41V36.1961Z" fill="#1B1B1B"/>
<path d="M145.436 36.1914V39.2019H144.892V36.1914H144.086V35.6874H146.242V36.1914H145.436Z" fill="#1B1B1B"/>
<path d="M150.488 36.8356L148.107 39.3559V35.6921H148.651V38.0631L151.032 35.5427V39.2066H150.488V36.8356Z" fill="#1B1B1B"/>
<path d="M155.199 36.1914H153.798V37.0362H155.157V37.5402H153.798V38.7071H155.199V39.2111H153.254V35.6967H155.199V36.2007V36.1914Z" fill="#1B1B1B"/>
<path d="M51.7785 1.96145V24.3739H48.3059V5.16323H40.8779V16.3368C40.8779 18.9318 40.7185 21.4615 38.5956 23.221C37.7942 23.8931 36.5054 24.5652 34.6402 24.5652C34.031 24.5652 33.4827 24.4999 33 24.3739V21.1721C33.2578 21.2374 33.7077 21.3634 34.1247 21.3634C34.898 21.3634 35.8306 21.0414 36.2805 20.626C37.3724 19.5992 37.4052 17.0695 37.4052 15.3099V1.95679H51.7785V1.96145Z" fill="#1B1B1B"/>
<path d="M69.3296 5.1632H60.3926V10.5446H69.0718V13.7464H60.3926V21.1767H69.3296V24.3785H56.9199V1.96143H69.3296V5.1632Z" fill="#1B1B1B"/>
<path d="M84.8263 5.1632H77.0469V24.3738H73.5742V1.96143H84.8263V5.1632Z" fill="#1B1B1B"/>
<path d="M103.024 9.26113L87.8496 25.3353V1.96147H91.3222V17.0742L106.497 1V24.3739H103.024V9.26113Z" fill="#1B1B1B"/>
<path d="M134.021 13.2004C134.021 19.7346 129.072 24.822 122.319 24.822C115.566 24.822 110.617 19.7299 110.617 13.2004C110.617 6.6708 115.599 1.51343 122.319 1.51343C129.04 1.51343 134.021 6.60546 134.021 13.2004ZM130.422 13.2004C130.422 8.23902 127.081 4.7152 122.319 4.7152C117.558 4.7152 114.216 8.23902 114.216 13.2004C114.216 18.1617 117.558 21.6202 122.319 21.6202C127.081 21.6202 130.422 18.129 130.422 13.2004Z" fill="#1B1B1B"/>
<path d="M141.607 10.736H151.186V1.96143H154.659V24.3738H151.186V13.9377H141.607V24.3738H138.135V1.96143H141.607V10.736Z" fill="#1B1B1B"/>
<path d="M156 29H33V31H156V29Z" fill="black" fill-opacity="0.2"/>
</svg>
