<svg width="19" height="19" viewBox="0 0 19 19" fill="none" xmlns="http://www.w3.org/2000/svg">
<g clip-path="url(#clip0_221_2720)">
<path d="M17.8267 1.97517C16.6512 0.799626 14.8028 -0.154723 12.6729 1.97517L4.03837 10.609C3.97189 10.6687 3.17722 11.4149 3.14926 12.4972C3.13186 13.1658 3.40586 13.789 3.96505 14.3482C4.44223 14.8253 5.01322 15.0732 5.61466 15.0658C6.70446 15.0527 7.51715 14.2313 7.60537 14.1381L14.1013 7.64286C14.3442 7.39992 14.3448 7.00725 14.1013 6.76431C13.8583 6.52137 13.4657 6.52137 13.2227 6.76431L6.71688 13.2702C6.56218 13.4292 6.07754 13.8194 5.59416 13.8231C5.32947 13.825 5.08405 13.7088 4.8436 13.469C4.53294 13.1583 4.38507 12.8539 4.39128 12.5364C4.40184 11.9728 4.89144 11.5131 4.89641 11.5075L13.5514 2.85371C14.3914 2.01431 15.452 1.35695 16.9482 2.85371C17.4962 3.40172 17.7677 3.96961 17.7571 4.54246C17.7391 5.48377 16.9761 6.19953 16.9681 6.20698L7.26365 15.8027C7.24252 15.8238 6.04275 17.0366 4.58202 17.0466C3.81345 17.0515 3.0834 16.7135 2.41237 16.0431C-0.123862 13.5069 2.24958 10.9756 2.35148 10.8694L9.81541 3.40483C10.0583 3.16189 10.0583 2.76921 9.81541 2.52566C9.57186 2.28272 9.17918 2.28334 8.93686 2.52566L1.46361 9.99891C0.296773 11.2142 -1.17638 14.2115 1.5332 16.9217C2.45151 17.8394 3.48353 18.2991 4.60066 18.2886C6.58765 18.2712 8.08503 16.7409 8.14779 16.6756L17.8242 7.10728C17.8516 7.08305 18.9625 6.05973 18.9992 4.58223C19.0222 3.65273 18.6276 2.77543 17.8267 1.97517Z" fill="#F02930"/>
</g>
<defs>
<clipPath id="clip0_221_2720">
<rect width="19" height="19" fill="white"/>
</clipPath>
</defs>
</svg>
