<svg width="20" height="20" viewBox="0 0 20 20" fill="none" xmlns="http://www.w3.org/2000/svg">
<g clip-path="url(#clip0_193_3077)">
<path d="M15.05 4.76251L6.82462 9.82852C6.35915 10.1159 6.13888 10.6834 6.28884 11.2083L7.17821 14.3333C7.25419 14.5998 7.4913 14.7769 7.76411 14.7769C7.77931 14.7769 7.79466 14.7763 7.81005 14.7752C8.10169 14.754 8.33247 14.5368 8.37126 14.2473L8.60251 12.5338C8.63368 12.3032 8.74478 12.0888 8.91505 11.9302L15.7027 5.62071C15.9079 5.43052 15.935 5.11907 15.7659 4.8963C15.5967 4.67333 15.289 4.61567 15.05 4.76251ZM8.37232 11.3468C8.06732 11.6308 7.8686 12.0144 7.81282 12.4271L7.70068 13.2583L7.05509 10.9899C7.00263 10.8061 7.07989 10.6074 7.24278 10.5068L13.2685 6.79563L8.37232 11.3468Z" fill="#F02930"/>
<path d="M19.6746 1.46026C19.4176 1.24244 19.063 1.18248 18.7489 1.30381L0.589073 8.30936C0.229425 8.44807 -0.00182509 8.7867 1.08522e-05 9.17205C0.00188585 9.55776 0.236534 9.89452 0.598292 10.0301L4.84009 11.6132L6.49474 16.9345C6.5856 17.2271 6.81493 17.4544 7.10814 17.5426C7.40118 17.6307 7.71767 17.5677 7.95423 17.3742L10.4206 15.3635C10.5391 15.267 10.7082 15.2622 10.8319 15.352L15.2804 18.5817C15.4405 18.6981 15.6293 18.758 15.8204 18.758C15.9323 18.758 16.045 18.7374 16.1531 18.6956C16.4455 18.5825 16.6582 18.3319 16.7218 18.0252L19.9808 2.34905C20.0492 2.01897 19.9319 1.67842 19.6746 1.46026ZM19.2006 2.18713L15.9417 17.8632C15.9299 17.9199 15.8892 17.9434 15.8659 17.9524C15.8424 17.9615 15.7961 17.9715 15.7488 17.9371L11.3001 14.7072C11.1012 14.5628 10.8674 14.4912 10.634 14.4912C10.3794 14.4912 10.1251 14.5765 9.91732 14.7458L7.45036 16.7569C7.40646 16.7929 7.36087 16.7865 7.33767 16.7795C7.31431 16.7724 7.27263 16.7525 7.25567 16.698L5.54298 11.1899C5.50638 11.0723 5.41732 10.9781 5.30185 10.935L0.877433 9.2837C0.811183 9.25889 0.797081 9.20721 0.796886 9.16819C0.796691 9.12952 0.810284 9.07807 0.875909 9.05276L19.0358 2.04725C19.0359 2.04721 19.036 2.04717 19.0361 2.04713C19.0951 2.02436 19.1387 2.05053 19.1595 2.06811C19.1804 2.08588 19.2136 2.12494 19.2006 2.18713Z" fill="#F02930"/>
</g>
<defs>
<clipPath id="clip0_193_3077">
<rect width="20" height="20" fill="white"/>
</clipPath>
</defs>
</svg>
