<svg width="20" height="20" viewBox="0 0 20 20" fill="none" xmlns="http://www.w3.org/2000/svg">
<g clip-path="url(#clip0_129_413)">
<path d="M15.05 4.76239L6.82462 9.8284C6.35915 10.1157 6.13888 10.6833 6.28884 11.2082L7.17821 14.3332C7.25419 14.5997 7.4913 14.7768 7.76411 14.7768C7.77931 14.7768 7.79466 14.7762 7.81005 14.7751C8.10169 14.7539 8.33247 14.5367 8.37126 14.2472L8.60251 12.5336C8.63368 12.3031 8.74478 12.0886 8.91505 11.9301L15.7027 5.62059C15.9079 5.4304 15.935 5.11895 15.7659 4.89618C15.5967 4.67321 15.289 4.61555 15.05 4.76239ZM8.37232 11.3467C8.06732 11.6306 7.8686 12.0143 7.81282 12.427L7.70068 13.2582L7.05509 10.9897C7.00263 10.806 7.07989 10.6073 7.24278 10.5067L13.2685 6.79551L8.37232 11.3467Z" fill="#505050"/>
<path d="M19.6746 1.4602C19.4176 1.24238 19.063 1.18242 18.7489 1.30375L0.589073 8.3093C0.229425 8.44801 -0.00182509 8.78664 1.08522e-05 9.17199C0.00188585 9.5577 0.236534 9.89445 0.598292 10.03L4.84009 11.6132L6.49474 16.9345C6.5856 17.227 6.81493 17.4543 7.10814 17.5425C7.40118 17.6306 7.71767 17.5676 7.95423 17.3741L10.4206 15.3635C10.5391 15.2669 10.7082 15.2621 10.8319 15.352L15.2804 18.5817C15.4405 18.698 15.6293 18.7579 15.8204 18.7579C15.9323 18.7579 16.045 18.7373 16.1531 18.6955C16.4455 18.5825 16.6582 18.3318 16.7218 18.0251L19.9808 2.34899C20.0492 2.01891 19.9319 1.67836 19.6746 1.4602ZM19.2006 2.18707L15.9417 17.8632C15.9299 17.9198 15.8892 17.9434 15.8659 17.9524C15.8424 17.9614 15.7961 17.9715 15.7488 17.937L11.3001 14.7072C11.1012 14.5628 10.8674 14.4911 10.634 14.4911C10.3794 14.4911 10.1251 14.5764 9.91732 14.7457L7.45036 16.7569C7.40646 16.7928 7.36087 16.7864 7.33767 16.7794C7.31431 16.7724 7.27263 16.7525 7.25567 16.6979L5.54298 11.1899C5.50638 11.0722 5.41732 10.978 5.30185 10.9349L0.877433 9.28363C0.811183 9.25883 0.797081 9.20715 0.796886 9.16813C0.796691 9.12945 0.810284 9.07801 0.875909 9.0527L19.0358 2.04719C19.0359 2.04715 19.036 2.04711 19.0361 2.04707C19.0951 2.0243 19.1387 2.05047 19.1595 2.06805C19.1804 2.08582 19.2136 2.12488 19.2006 2.18707Z" fill="#505050"/>
</g>
<defs>
<clipPath id="clip0_129_413">
<rect width="20" height="20" fill="white"/>
</clipPath>
</defs>
</svg>
